arm260_states
version=1
nRows=24
nColumns=17
inDegrees=yes

# SIMM Motion File Header:
name arm260_states
datacolumns 17
datarows 24
otherdata 1
range 0.18367053 0.20598781
endheader
time	/jointset/r_shoulder/r_shoulder_elev/value	/jointset/r_shoulder/r_shoulder_elev/speed	/jointset/r_elbow/r_elbow_flex/value	/jointset/r_elbow/r_elbow_flex/speed	/forceset/TRIlong/activation	/forceset/TRIlong/fiber_length	/forceset/TRIlat/activation	/forceset/TRIlat/fiber_length	/forceset/TRImed/activation	/forceset/TRImed/fiber_length	/forceset/BIClong/activation	/forceset/BIClong/fiber_length	/forceset/BICshort/activation	/forceset/BICshort/fiber_length	/forceset/BRA/activation	/forceset/BRA/fiber_length
      0.18367053	     -0.01726128	      0.86949969	     47.98023964	    259.87484606	      0.02000000	      0.15519143	      0.04957646	      0.08890048	      0.05106525	      0.08392433	      0.43523135	      0.12850785	      0.14884206	      0.12849471	      0.03459607	      0.08230567
      0.18528632	     -0.01583672	      0.89445215	     48.40009253	    259.80566209	      0.02000000	      0.15536404	      0.05032614	      0.08905441	      0.05211188	      0.08407583	      0.44008055	      0.12823548	      0.14549508	      0.12823769	      0.03431847	      0.08221007
      0.18630414	     -0.01491853	      0.90965258	     48.66450848	    259.77185062	      0.02000000	      0.15545130	      0.05070047	      0.08915229	      0.05263475	      0.08417238	      0.44279249	      0.12806305	      0.14344767	      0.12807877	      0.03414686	      0.08214937
      0.18752898	     -0.01379389	      0.92629199	     48.98266242	    259.72735642	      0.02000000	      0.15557696	      0.05107113	      0.08927083	      0.05315278	      0.08428960	      0.44574606	      0.12785495	      0.14104392	      0.12788978	      0.03394360	      0.08207583
      0.18879564	     -0.01261174	      0.93943382	     49.31162654	    259.69875744	      0.02000000	      0.15569461	      0.05137973	      0.08939406	      0.05358443	      0.08441166	      0.44848168	      0.12763932	      0.13862493	      0.12769626	      0.03373711	      0.08199921
      0.18965980	     -0.01179700	      0.94582262	     49.53603914	    259.68240667	      0.02000000	      0.15578421	      0.05155447	      0.08947839	      0.05382905	      0.08449530	      0.45018060	      0.12749204	      0.13701237	      0.12756506	      0.03359834	      0.08194662
      0.19001272	     -0.01146286	      0.94771113	     49.62768520	    259.67868083	      0.02000000	      0.15581823	      0.05165616	      0.08951289	      0.05393352	      0.08452953	      0.45091655	      0.12743187	      0.13639932	      0.12751163	      0.03354216	      0.08192506
      0.19036563	     -0.01112810	      0.94942586	     49.71933004	    259.67519478	      0.02000000	      0.15585267	      0.05202869	      0.08954639	      0.05413970	      0.08456342	      0.45221660	      0.12737159	      0.13607108	      0.12745817	      0.03348626	      0.08190346
      0.19071855	     -0.01079267	      0.95158456	     49.81097341	    259.67017378	      0.02000000	      0.15588725	      0.05239732	      0.08957884	      0.05434083	      0.08459695	      0.45351596	      0.12731114	      0.13576432	      0.12740462	      0.03343064	      0.08188181
      0.19228864	     -0.00928567	      0.97130853	     50.21864428	    259.61569422	      0.02000000	      0.15604111	      0.05378727	      0.08972183	      0.05510059	      0.08474616	      0.45882656	      0.12704051	      0.13442479	      0.12716519	      0.03318653	      0.08178498
      0.19385873	     -0.00773854	      1.00019157	     50.62620090	    259.53226727	      0.02000000	      0.15619536	      0.05484454	      0.08986612	      0.05567987	      0.08489571	      0.46345064	      0.12676788	      0.13312532	      0.12692391	      0.03294778	      0.08168727
      0.19592741	     -0.00562857	      1.03913577	     51.16296944	    259.43003593	      0.02000000	      0.15638574	      0.05586328	      0.09006077	      0.05623908	      0.08509593	      0.46865371	      0.12640690	      0.13147202	      0.12660332	      0.03264121	      0.08155724
      0.19683341	     -0.00468139	      1.05143093	     51.39799634	    259.39041913	      0.02000000	      0.15650280	      0.05620701	      0.09014655	      0.05642797	      0.08518255	      0.47065611	      0.12624844	      0.13076829	      0.12646198	      0.03250974	      0.08149982
      0.19773942	     -0.00372442	      1.06048244	     51.63299792	    259.37500203	      0.02000000	      0.15657319	      0.05650113	      0.09023292	      0.05658967	      0.08527010	      0.47250913	      0.12608987	      0.13007662	      0.12632008	      0.03237994	      0.08144212
      0.19901828	     -0.00236353	      1.06632759	     51.96469147	    259.36244459	      0.02000000	      0.15669637	      0.05684561	      0.09035544	      0.05677913	      0.08539398	      0.47489306	      0.12586592	      0.12912034	      0.12611885	      0.03219952	      0.08136020
      0.19966821	     -0.00167055	      1.06574947	     52.13325967	    259.36629923	      0.02000000	      0.15675999	      0.05699376	      0.09041789	      0.05686064	      0.08545699	      0.47600911	      0.12575208	      0.12864316	      0.12601616	      0.03210907	      0.08131834
      0.19995051	     -0.00136982	      1.06472378	     52.20647961	    259.37037470	      0.02000000	      0.15678738	      0.05705315	      0.09044505	      0.05689331	      0.08548437	      0.47647511	      0.12570263	      0.12843771	      0.12597148	      0.03207004	      0.08130012
      0.20002340	     -0.00129222	      1.06438178	     52.22538528	    259.37165750	      0.02000000	      0.15679444	      0.05708447	      0.09045207	      0.05691784	      0.08549144	      0.47660531	      0.12568986	      0.12847342	      0.12595993	      0.03205999	      0.08129541
      0.20009629	     -0.00121465	      1.06401314	     52.24429104	    259.37301869	      0.02000000	      0.15680151	      0.05719703	      0.09045901	      0.05702315	      0.08549843	      0.47679290	      0.12567709	      0.12894830	      0.12594834	      0.03204995	      0.08129070
      0.20046074	     -0.00082720	      1.06230773	     52.33882134	    259.37933080	      0.02000000	      0.15683680	      0.05773886	      0.09049242	      0.05753010	      0.08553213	      0.47771351	      0.12561319	      0.13124243	      0.12588952	      0.03199989	      0.08126711
      0.20173160	      0.00052357	      1.06709608	     52.66845537	    259.36724348	      0.02000000	      0.15695980	      0.05938100	      0.09060393	      0.05906667	      0.08564508	      0.48070924	      0.12538979	      0.13829733	      0.12567483	      0.03182733	      0.08118449
      0.20300246	      0.00189127	      1.08731561	     52.99803990	    259.30672655	      0.02000000	      0.15708226	      0.06069945	      0.09071574	      0.06030046	      0.08575821	      0.48339942	      0.12516571	      0.14411179	      0.12544925	      0.03165783	      0.08110132
      0.20508782	      0.00420414	      1.13052504	     53.53865224	    259.17270873	      0.02000000	      0.15729379	      0.06232756	      0.09090398	      0.06182392	      0.08594814	      0.48723654	      0.12479707	      0.15157503	      0.12506545	      0.03138617	      0.08096365
      0.20598781	      0.00522863	      1.14546382	     53.77188577	    259.13311367	      0.02000000	      0.15736922	      0.06287008	      0.09098662	      0.06233151	      0.08603124	      0.48869710	      0.12463774	      0.15416247	      0.12489698	      0.03127136	      0.08090379
